<svg width="28" height="28" viewBox="0 0 28 28" fill="none" xmlns="http://www.w3.org/2000/svg">
<g clip-path="url(#clip0_10_18)">
<path d="M14 28C21.732 28 28 21.732 28 14C28 6.26801 21.732 0 14 0C6.26801 0 0 6.26801 0 14C0 21.732 6.26801 28 14 28Z" fill="#7B61FF"/>
<path d="M14.1385 21.777C12.6277 21.777 11.1509 21.329 9.89477 20.4897C8.63863 19.6503 7.65958 18.4574 7.08145 17.0616C6.50331 15.6658 6.35204 14.13 6.64677 12.6483C6.94151 11.1666 7.669 9.80552 8.73726 8.73726C9.80552 7.669 11.1666 6.94151 12.6483 6.64677C14.13 6.35204 15.6658 6.50331 17.0616 7.08145C18.4574 7.65959 19.6503 8.63863 20.4897 9.89477C21.329 11.1509 21.777 12.6277 21.777 14.1385C21.7748 16.1636 20.9693 18.1053 19.5373 19.5373C18.1053 20.9693 16.1637 21.7748 14.1385 21.777ZM14.1385 7.88882C12.9024 7.88882 11.6941 8.25535 10.6664 8.94207C9.6386 9.6288 8.83756 10.6049 8.36454 11.7468C7.89152 12.8888 7.76776 14.1454 8.0089 15.3577C8.25005 16.5701 8.84527 17.6836 9.7193 18.5577C10.5933 19.4317 11.7069 20.0269 12.9192 20.2681C14.1315 20.5092 15.3881 20.3855 16.5301 19.9124C17.6721 19.4394 18.6482 18.6384 19.3349 17.6106C20.0216 16.5829 20.3882 15.3745 20.3882 14.1385C20.3863 12.4815 19.7273 10.893 18.5556 9.72133C17.384 8.54969 15.7954 7.89066 14.1385 7.88882Z" fill="white"/>
<path d="M17.0552 12.3888V11H11.5V12.3888H15.3192L11.5 16.5553V17.9441H17.0552V16.5553H13.2409L17.0552 12.3888Z" fill="white"/>
<path d="M6 8.49292L8.48805 6L9.47064 6.9805L6.98258 9.47342L6 8.49292Z" fill="white"/>
<path d="M19 6.9805L19.984 6L22.472 8.49292L21.4895 9.47343L19 6.9805Z" fill="white"/>
</g>
<defs>
<clipPath id="clip0_10_18">
<rect width="28" height="28" fill="white"/>
</clipPath>
</defs>
</svg>
