<svg width="16" height="16" viewBox="0 0 16 16" fill="none" xmlns="http://www.w3.org/2000/svg">
<path d="M10.9219 5.51562H10.1891C10.0297 5.51562 9.87812 5.59219 9.78437 5.72344L7.32812 9.12969L6.21562 7.58594C6.12187 7.45625 5.97187 7.37813 5.81094 7.37813H5.07812C4.97656 7.37813 4.91719 7.49375 4.97656 7.57656L6.92344 10.2766C6.96943 10.3408 7.03006 10.3931 7.1003 10.4291C7.17054 10.4652 7.24838 10.4841 7.32734 10.4841C7.40631 10.4841 7.48414 10.4652 7.55439 10.4291C7.62463 10.3931 7.68526 10.3408 7.73125 10.2766L11.0219 5.71406C11.0828 5.63125 11.0234 5.51562 10.9219 5.51562V5.51562Z" fill="white"/>
<path d="M8 1C4.13438 1 1 4.13438 1 8C1 11.8656 4.13438 15 8 15C11.8656 15 15 11.8656 15 8C15 4.13438 11.8656 1 8 1ZM8 13.8125C4.79063 13.8125 2.1875 11.2094 2.1875 8C2.1875 4.79063 4.79063 2.1875 8 2.1875C11.2094 2.1875 13.8125 4.79063 13.8125 8C13.8125 11.2094 11.2094 13.8125 8 13.8125Z" fill="white"/>
</svg>
