<svg width="24" height="24" viewBox="0 0 24 24" fill="none" xmlns="http://www.w3.org/2000/svg">
<circle cx="12" cy="12" r="12" fill="#37CB97"/>
<path d="M14.9219 9.51562H14.1891C14.0297 9.51562 13.8781 9.59219 13.7844 9.72344L11.3281 13.1297L10.2156 11.5859C10.1219 11.4562 9.97187 11.3781 9.81094 11.3781H9.07812C8.97656 11.3781 8.91719 11.4937 8.97656 11.5766L10.9234 14.2766C10.9694 14.3408 11.0301 14.3931 11.1003 14.4291C11.1705 14.4652 11.2484 14.4841 11.3273 14.4841C11.4063 14.4841 11.4841 14.4652 11.5544 14.4291C11.6246 14.3931 11.6853 14.3408 11.7312 14.2766L15.0219 9.71406C15.0828 9.63125 15.0234 9.51562 14.9219 9.51562Z" fill="white"/>
<path d="M12 5C8.13438 5 5 8.13438 5 12C5 15.8656 8.13438 19 12 19C15.8656 19 19 15.8656 19 12C19 8.13438 15.8656 5 12 5ZM12 17.8125C8.79063 17.8125 6.1875 15.2094 6.1875 12C6.1875 8.79063 8.79063 6.1875 12 6.1875C15.2094 6.1875 17.8125 8.79063 17.8125 12C17.8125 15.2094 15.2094 17.8125 12 17.8125Z" fill="white"/>
</svg>
