<svg width="20" height="20" viewBox="0 0 20 20" fill="none" xmlns="http://www.w3.org/2000/svg">
<path d="M9.99996 1.6666C8.49171 1.6666 7.0974 2.03823 5.81702 2.7815C4.53663 3.52478 3.52481 4.5366 2.78153 5.81699C2.03826 7.09737 1.66663 8.49168 1.66663 9.99993C1.66663 11.5082 2.03826 12.9025 2.78153 14.1829C3.52481 15.4633 4.53663 16.4751 5.81702 17.2184C7.0974 17.9616 8.49171 18.3333 9.99996 18.3333C11.5082 18.3333 12.9025 17.9616 14.1829 17.2184C15.4633 16.4751 16.4751 15.4633 17.2184 14.1829C17.9617 12.9025 18.3333 11.5082 18.3333 9.99993C18.3333 8.49168 17.9617 7.09737 17.2184 5.81699C16.4751 4.5366 15.4633 3.52478 14.1829 2.7815C12.9025 2.03823 11.5082 1.6666 9.99996 1.6666ZM9.99996 17.3079C9.20786 17.3079 8.44017 17.1858 7.6969 16.9417C6.95363 16.6975 6.2836 16.3476 5.68681 15.8919C5.09002 15.4361 4.56647 14.9099 4.11617 14.3131C3.66587 13.7163 3.31864 13.0463 3.0745 12.303C2.83036 11.5597 2.70829 10.792 2.70829 9.99993C2.70829 9.01252 2.90089 8.06851 3.28609 7.1679C3.67129 6.26729 4.18941 5.49147 4.84045 4.84042C5.4915 4.18938 6.26732 3.67126 7.16793 3.28606C8.06854 2.90086 9.01255 2.70826 9.99996 2.70826C10.9874 2.70826 11.9314 2.90086 12.832 3.28606C13.7326 3.67126 14.5084 4.18938 15.1595 4.84042C15.8105 5.49147 16.3286 6.26729 16.7138 7.1679C17.099 8.06851 17.2916 9.01252 17.2916 9.99993C17.2916 10.9873 17.099 11.9314 16.7138 12.832C16.3286 13.7326 15.8105 14.5111 15.1595 15.1676C14.5084 15.824 13.7326 16.3449 12.832 16.7301C11.9314 17.1153 10.9874 17.3079 9.99996 17.3079ZM12.9459 7.05397C12.8483 6.95631 12.7262 6.90748 12.5797 6.90748C12.4332 6.90748 12.3112 6.95631 12.2135 7.05397L9.99996 9.26751L7.78642 7.05397C7.68876 6.95631 7.56669 6.90748 7.42021 6.90748C7.27372 6.90748 7.15165 6.95631 7.054 7.05397C6.95634 7.15162 6.90751 7.27369 6.90751 7.42018C6.90751 7.56666 6.95634 7.68873 7.054 7.78639L9.26754 9.99993L7.054 12.2135C6.98889 12.2786 6.94278 12.3545 6.91565 12.4413C6.88852 12.5281 6.88852 12.6177 6.91565 12.7099C6.94278 12.8021 6.98889 12.8808 7.054 12.9459C7.15165 13.0435 7.27372 13.0924 7.42021 13.0924C7.56669 13.0924 7.68876 13.0435 7.78642 12.9459L9.99996 10.7324L12.2135 12.9459C12.3112 13.0435 12.4332 13.0924 12.5797 13.0924C12.7262 13.0924 12.8483 13.0435 12.9459 12.9459C13.011 12.8808 13.0571 12.8021 13.0843 12.7099C13.1114 12.6177 13.1114 12.5281 13.0843 12.4413C13.0571 12.3545 13.011 12.2786 12.9459 12.2135L10.7324 9.99993L12.9459 7.78639C13.0436 7.68873 13.0924 7.56666 13.0924 7.42018C13.0924 7.27369 13.0436 7.15162 12.9459 7.05397Z" fill="white"/>
</svg>
