<svg width="20" height="20" viewBox="0 0 20 20" fill="none" xmlns="http://www.w3.org/2000/svg">
<path d="M9.99996 1.66655C8.49171 1.66655 7.0974 2.03819 5.81702 2.78146C4.53663 3.52473 3.52481 4.53656 2.78153 5.81694C2.03826 7.09732 1.66663 8.49164 1.66663 9.99988C1.66663 11.5081 2.03826 12.9024 2.78153 14.1828C3.52481 15.4632 4.53663 16.475 5.81702 17.2183C7.0974 17.9616 8.49171 18.3332 9.99996 18.3332C11.5082 18.3332 12.9025 17.9616 14.1829 17.2183C15.4633 16.475 16.4751 15.4632 17.2184 14.1828C17.9617 12.9024 18.3333 11.5081 18.3333 9.99988C18.3333 8.49164 17.9617 7.09732 17.2184 5.81694C16.4751 4.53656 15.4633 3.52473 14.1829 2.78146C12.9025 2.03819 11.5082 1.66655 9.99996 1.66655ZM9.99996 17.3078C9.20786 17.3078 8.44017 17.1858 7.6969 16.9416C6.95363 16.6975 6.2836 16.3475 5.68681 15.8918C5.09002 15.4361 4.56647 14.9098 4.11617 14.313C3.66587 13.7162 3.31864 13.0462 3.0745 12.3029C2.83036 11.5597 2.70829 10.792 2.70829 9.99988C2.70829 9.01247 2.90089 8.06846 3.28609 7.16785C3.67129 6.26724 4.18941 5.49142 4.84045 4.84038C5.4915 4.18934 6.26732 3.67122 7.16793 3.28602C8.06854 2.90082 9.01255 2.70822 9.99996 2.70822C10.9874 2.70822 11.9314 2.90082 12.832 3.28602C13.7326 3.67122 14.5084 4.18934 15.1595 4.84038C15.8105 5.49142 16.3286 6.26724 16.7138 7.16785C17.099 8.06846 17.2916 9.01247 17.2916 9.99988C17.2916 10.9873 17.099 11.9313 16.7138 12.8319C16.3286 13.7325 15.8105 14.5111 15.1595 15.1675C14.5084 15.824 13.7326 16.3448 12.832 16.73C11.9314 17.1152 10.9874 17.3078 9.99996 17.3078ZM10.5208 9.78829V4.79155C10.5208 4.65049 10.4693 4.52842 10.3662 4.42534C10.2631 4.32226 10.141 4.27072 9.99996 4.27072C9.8589 4.27072 9.73683 4.32226 9.63375 4.42534C9.53067 4.52842 9.47913 4.65049 9.47913 4.79155V9.99988C9.47913 10.1518 9.53338 10.2766 9.64189 10.3742L9.65002 10.3905L9.65816 10.4068L12.2461 12.9784C12.3437 13.0869 12.4658 13.1412 12.6123 13.1412C12.7587 13.1412 12.8808 13.0896 12.9785 12.9865C13.0761 12.8835 13.125 12.7587 13.125 12.6122C13.125 12.4657 13.0761 12.3436 12.9785 12.246L10.5208 9.78829Z" fill="white"/>
</svg>
