<svg width="20" height="20" viewBox="0 0 20 20" fill="none" xmlns="http://www.w3.org/2000/svg">
<path d="M17.5 3.75006H11.25V2.50006C11.25 2.16854 11.1183 1.8506 10.8839 1.61618C10.6495 1.38176 10.3315 1.25006 10 1.25006H2.5C2.16848 1.25006 1.85054 1.38176 1.61612 1.61618C1.3817 1.8506 1.25 2.16854 1.25 2.50006V15.0001C1.25 15.3316 1.3817 15.6495 1.61612 15.8839C1.85054 16.1184 2.16848 16.2501 2.5 16.2501H8.75V17.5001C8.75 17.8316 8.8817 18.1495 9.11612 18.3839C9.35054 18.6184 9.66848 18.7501 10 18.7501H17.5C17.8315 18.7501 18.1495 18.6184 18.3839 18.3839C18.6183 18.1495 18.75 17.8316 18.75 17.5001V5.00006C18.75 4.66854 18.6183 4.3506 18.3839 4.11618C18.1495 3.88176 17.8315 3.75006 17.5 3.75006ZM2.5 9.37506H6.35625L4.74375 10.9938L5.625 11.8751L8.75 8.75006L5.625 5.62506L4.74375 6.50631L6.35625 8.12506H2.5V2.50006H10V15.0001H2.5V9.37506ZM10 17.5001V16.2501C10.3315 16.2501 10.6495 16.1184 10.8839 15.8839C11.1183 15.6495 11.25 15.3316 11.25 15.0001V5.00006H17.5V10.6251H13.6438L15.2563 9.00631L14.375 8.12506L11.25 11.2501L14.375 14.3751L15.2563 13.4938L13.6438 11.8751H17.5V17.5001H10Z" fill="white"/>
</svg>
