<svg width="28" height="28" viewBox="0 0 28 28" fill="none" xmlns="http://www.w3.org/2000/svg">
<circle cx="14" cy="14.0001" r="14" fill="#D32F2F"/>
<path d="M13.4791 16.6367V8.79167C13.4791 8.63976 13.528 8.51498 13.6256 8.41732C13.7233 8.31967 13.8481 8.27084 14 8.27084C14.1519 8.27084 14.2767 8.31967 14.3743 8.41732C14.472 8.51498 14.5208 8.63976 14.5208 8.79167V16.6367H13.4791ZM13.4791 17.6621H14.5208V18.6387H13.4791V17.6621ZM5.66663 14C5.66663 11.6997 6.48043 9.73568 8.10803 8.10808C9.73564 6.48047 11.6996 5.66667 14 5.66667C16.3003 5.66667 18.2643 6.48047 19.8919 8.10808C21.5195 9.73568 22.3333 11.6997 22.3333 14C22.3333 16.3004 21.5195 18.2643 19.8919 19.8919C18.2643 21.5195 16.3003 22.3333 14 22.3333C11.6996 22.3333 9.73564 21.5195 8.10803 19.8919C6.48043 18.2643 5.66663 16.3004 5.66663 14ZM21.3079 14C21.3079 11.9926 20.5918 10.2755 19.1595 8.84864C17.7272 7.42177 16.0073 6.70834 14 6.70834C11.9926 6.70834 10.2755 7.42177 8.84859 8.84864C7.42173 10.2755 6.70829 11.9926 6.70829 14C6.70829 16.0074 7.42173 17.7245 8.84859 19.1514C10.2755 20.5782 11.9926 21.2917 14 21.2917C16.0073 21.2917 17.7272 20.5782 19.1595 19.1514C20.5918 17.7245 21.3079 16.0074 21.3079 14Z" fill="white"/>
</svg>
