<svg width="16" height="16" viewBox="0 0 16 16" fill="none" xmlns="http://www.w3.org/2000/svg">
<g clip-path="url(#clip0_1145_39207)">
<path d="M8 3.55556L4.88889 0H0L6.22222 7.55556L11.3427 5.44444L8 3.55556Z" fill="#4584EB"/>
<path d="M11.1111 0L8 3.55556L10.3956 6.80533L10.9409 6.14356L16 0H11.1111Z" fill="#4584EB"/>
<path d="M10.3133 7.12267C10.3489 7.02623 10.3716 6.92356 10.3716 6.81467C10.3716 6.57892 10.2779 6.35283 10.1112 6.18613C9.94451 6.01943 9.71842 5.92578 9.48267 5.92578H6.51956C6.28381 5.92578 6.05772 6.01943 5.89102 6.18613C5.72432 6.35283 5.63067 6.57892 5.63067 6.81467C5.63067 6.92356 5.65289 7.02623 5.68889 7.12267C4.24089 7.93423 3.26044 9.48134 3.26044 11.2591C3.26 13.8773 5.38267 16 8.00089 16C10.6191 16 12.7418 13.8773 12.7418 11.2591C12.7418 9.48134 11.7613 7.93423 10.3133 7.12267Z" fill="#FFAC33"/>
<path d="M8.624 8.2666H7.85911L6.64578 9.21416C6.61744 9.24992 6.60014 9.29316 6.596 9.3386V9.86216C6.596 9.94482 6.66267 10.0195 6.74578 10.0195H7.54356V13.759C7.54356 13.8426 7.61022 13.9168 7.70133 13.9168H8.624C8.70667 13.9168 8.77333 13.8422 8.77333 13.759V8.42393C8.77333 8.34127 8.70711 8.2666 8.624 8.2666Z" fill="#9E5200"/>
</g>
<defs>
<clipPath id="clip0_1145_39207">
<rect width="16" height="16" fill="white"/>
</clipPath>
</defs>
</svg>
