<svg width="28" height="28" viewBox="0 0 28 28" fill="none" xmlns="http://www.w3.org/2000/svg">
<circle cx="14" cy="14.0002" r="14" fill="#D32F2F"/>
<path d="M21.5 7.75006H15.25V6.50006C15.25 6.16854 15.1183 5.8506 14.8839 5.61618C14.6495 5.38176 14.3315 5.25006 14 5.25006H6.5C6.16848 5.25006 5.85054 5.38176 5.61612 5.61618C5.3817 5.8506 5.25 6.16854 5.25 6.50006V19.0001C5.25 19.3316 5.3817 19.6495 5.61612 19.8839C5.85054 20.1184 6.16848 20.2501 6.5 20.2501H12.75V21.5001C12.75 21.8316 12.8817 22.1495 13.1161 22.3839C13.3505 22.6184 13.6685 22.7501 14 22.7501H21.5C21.8315 22.7501 22.1495 22.6184 22.3839 22.3839C22.6183 22.1495 22.75 21.8316 22.75 21.5001V9.00006C22.75 8.66854 22.6183 8.3506 22.3839 8.11618C22.1495 7.88176 21.8315 7.75006 21.5 7.75006ZM6.5 13.3751H10.3562L8.74375 14.9938L9.625 15.8751L12.75 12.7501L9.625 9.62506L8.74375 10.5063L10.3562 12.1251H6.5V6.50006H14V19.0001H6.5V13.3751ZM14 21.5001V20.2501C14.3315 20.2501 14.6495 20.1184 14.8839 19.8839C15.1183 19.6495 15.25 19.3316 15.25 19.0001V9.00006H21.5V14.6251H17.6438L19.2563 13.0063L18.375 12.1251L15.25 15.2501L18.375 18.3751L19.2563 17.4938L17.6438 15.8751H21.5V21.5001H14Z" fill="white"/>
</svg>
