<svg width="24" height="24" viewBox="0 0 24 24" fill="none" xmlns="http://www.w3.org/2000/svg">
<circle cx="12" cy="12" r="12" fill="#37CB97"/>
<path d="M5 15H19V16H5V15Z" fill="white"/>
<path d="M5 17H19V18H5V17Z" fill="white"/>
<path d="M16 9C15.8022 9 15.6089 9.05865 15.4444 9.16853C15.28 9.27841 15.1518 9.43459 15.0761 9.61732C15.0004 9.80004 14.9806 10.0011 15.0192 10.1951C15.0578 10.3891 15.153 10.5673 15.2929 10.7071C15.4327 10.847 15.6109 10.9422 15.8049 10.9808C15.9989 11.0194 16.2 10.9996 16.3827 10.9239C16.5654 10.8482 16.7216 10.72 16.8315 10.5556C16.9414 10.3911 17 10.1978 17 10C17 9.73478 16.8946 9.48043 16.7071 9.29289C16.5196 9.10536 16.2652 9 16 9Z" fill="white"/>
<path d="M12 12C11.6044 12 11.2178 11.8827 10.8889 11.6629C10.56 11.4432 10.3036 11.1308 10.1522 10.7654C10.0009 10.3999 9.96126 9.99778 10.0384 9.60982C10.1156 9.22186 10.3061 8.86549 10.5858 8.58579C10.8655 8.30608 11.2219 8.1156 11.6098 8.03843C11.9978 7.96126 12.3999 8.00087 12.7654 8.15224C13.1308 8.30362 13.4432 8.55996 13.6629 8.88886C13.8827 9.21776 14 9.60444 14 10C13.9993 10.5302 13.7884 11.0386 13.4135 11.4135C13.0386 11.7884 12.5302 11.9993 12 12ZM12 9C11.8022 9 11.6089 9.05865 11.4444 9.16853C11.28 9.27841 11.1518 9.43459 11.0761 9.61732C11.0004 9.80004 10.9806 10.0011 11.0192 10.1951C11.0578 10.3891 11.153 10.5673 11.2929 10.7071C11.4327 10.847 11.6109 10.9422 11.8049 10.9808C11.9989 11.0194 12.2 10.9996 12.3827 10.9239C12.5654 10.8482 12.7216 10.72 12.8315 10.5556C12.9414 10.3911 13 10.1978 13 10C12.9997 9.73487 12.8943 9.48067 12.7068 9.29319C12.5193 9.10571 12.2651 9.00027 12 9Z" fill="white"/>
<path d="M8 9C7.80222 9 7.60888 9.05865 7.44443 9.16853C7.27998 9.27841 7.15181 9.43459 7.07612 9.61732C7.00043 9.80004 6.98063 10.0011 7.01922 10.1951C7.0578 10.3891 7.15304 10.5673 7.29289 10.7071C7.43275 10.847 7.61093 10.9422 7.80491 10.9808C7.99889 11.0194 8.19996 10.9996 8.38268 10.9239C8.56541 10.8482 8.72159 10.72 8.83147 10.5556C8.94135 10.3911 9 10.1978 9 10C9 9.73478 8.89464 9.48043 8.70711 9.29289C8.51957 9.10536 8.26522 9 8 9Z" fill="white"/>
<path d="M18 14H6C5.73499 13.9993 5.48102 13.8938 5.29362 13.7064C5.10623 13.519 5.00066 13.265 5 13V7C5.00066 6.73499 5.10623 6.48102 5.29362 6.29362C5.48102 6.10623 5.73499 6.00066 6 6H18C18.265 6.00066 18.519 6.10623 18.7064 6.29362C18.8938 6.48102 18.9993 6.73499 19 7V13C18.9996 13.2651 18.8941 13.5192 18.7067 13.7067C18.5192 13.8941 18.2651 13.9996 18 14ZM18 7H6V13H18V7Z" fill="white"/>
</svg>
