<svg width="28" height="28" viewBox="0 0 28 28" fill="none" xmlns="http://www.w3.org/2000/svg">
<circle cx="14" cy="14.0002" r="14" fill="#D32F2F"/>
<g clip-path="url(#clip0_3349_3842)">
<path d="M21.45 13.1667C21.2613 11.4768 20.5035 9.90135 19.3011 8.69898C18.0988 7.49661 16.5233 6.73883 14.8334 6.55007V4.8334H13.1667V6.55007C12.35 6.64174 11.575 6.86674 10.8584 7.20007L12.1334 8.47507C13.1633 8.12604 14.2704 8.07208 15.3294 8.31929C16.3884 8.56651 17.3571 9.10503 18.1261 9.874C18.8951 10.643 19.4336 11.6117 19.6808 12.6707C19.928 13.7297 19.8741 14.8368 19.525 15.8667L20.8 17.1417C21.1334 16.4251 21.3584 15.6501 21.45 14.8334H23.1667V13.1667H21.45ZM6.50004 7.5584L8.20004 9.2584C7.28512 10.3751 6.71217 11.7322 6.55004 13.1667H4.83337V14.8334H6.55004C6.7388 16.5233 7.49658 18.0988 8.69895 19.3012C9.90132 20.5035 11.4768 21.2613 13.1667 21.4501V23.1667H14.8334V21.4501C16.3084 21.2834 17.65 20.6917 18.7417 19.8001L20.4417 21.5001L21.6167 20.3251L7.67504 6.3834L6.50004 7.5584ZM17.5584 18.6167C16.4365 19.4806 15.0386 19.9067 13.6256 19.8153C12.2126 19.7239 10.8812 19.1213 9.88001 18.1201C8.87879 17.1189 8.27623 15.7875 8.18484 14.3745C8.09345 12.9615 8.51948 11.5636 9.38337 10.4417L17.5584 18.6167Z" fill="white"/>
</g>
<defs>
<clipPath id="clip0_3349_3842">
<rect width="20" height="20" fill="white" transform="translate(4 4.00006)"/>
</clipPath>
</defs>
</svg>
