<svg width="16" height="17" viewBox="0 0 16 17" fill="none" xmlns="http://www.w3.org/2000/svg">
<path d="M7.53125 2.87524H8.46875C8.55208 2.87524 8.59375 2.91691 8.59375 3.00024V14.0002C8.59375 14.0836 8.55208 14.1252 8.46875 14.1252H7.53125C7.44792 14.1252 7.40625 14.0836 7.40625 14.0002V3.00024C7.40625 2.91691 7.44792 2.87524 7.53125 2.87524Z" fill="#454F63"/>
<path d="M7.53125 2.87524H8.46875C8.55208 2.87524 8.59375 2.91691 8.59375 3.00024V14.0002C8.59375 14.0836 8.55208 14.1252 8.46875 14.1252H7.53125C7.44792 14.1252 7.40625 14.0836 7.40625 14.0002V3.00024C7.40625 2.91691 7.44792 2.87524 7.53125 2.87524Z" fill="black"/>
<path d="M2.75 7.90649H13.25C13.3333 7.90649 13.375 7.94816 13.375 8.03149V8.96899C13.375 9.05233 13.3333 9.09399 13.25 9.09399H2.75C2.66667 9.09399 2.625 9.05233 2.625 8.96899V8.03149C2.625 7.94816 2.66667 7.90649 2.75 7.90649Z" fill="#454F63"/>
<path d="M2.75 7.90649H13.25C13.3333 7.90649 13.375 7.94816 13.375 8.03149V8.96899C13.375 9.05233 13.3333 9.09399 13.25 9.09399H2.75C2.66667 9.09399 2.625 9.05233 2.625 8.96899V8.03149C2.625 7.94816 2.66667 7.90649 2.75 7.90649Z" fill="black"/>
</svg>
