<svg width="16" height="16" viewBox="0 0 16 16" fill="none" xmlns="http://www.w3.org/2000/svg">
<g clip-path="url(#clip0_1145_39230)">
<path d="M8 3.55556L4.88889 0H0L6.22222 7.55556L11.3427 5.44444L8 3.55556Z" fill="#4584EB"/>
<path d="M11.1111 0L8 3.55556L10.3956 6.80533L10.9409 6.14356L16 0H11.1111Z" fill="#4584EB"/>
<path d="M10.3133 7.12267C10.3489 7.02623 10.3716 6.92356 10.3716 6.81467C10.3716 6.57892 10.2779 6.35283 10.1112 6.18613C9.94451 6.01943 9.71842 5.92578 9.48267 5.92578H6.51956C6.28381 5.92578 6.05772 6.01943 5.89102 6.18613C5.72432 6.35283 5.63067 6.57892 5.63067 6.81467C5.63067 6.92356 5.65289 7.02623 5.68889 7.12267C4.24089 7.93423 3.26044 9.48134 3.26044 11.2591C3.26 13.8773 5.38267 16 8.00089 16C10.6191 16 12.7418 13.8773 12.7418 11.2591C12.7418 9.48134 11.7613 7.93423 10.3133 7.12267Z" fill="#CCD6DD"/>
<path d="M9.77867 12.8538H8.204C8.59422 12.3054 9.276 11.4165 9.54178 10.9423C9.74133 10.5516 9.86578 10.3027 9.86578 9.86226C9.86578 8.93959 9.168 8.18359 7.97956 8.18359C6.99067 8.18359 6.31733 8.99782 6.31733 8.99782C6.25911 9.06448 6.26756 9.16404 6.32578 9.21426L6.83289 9.72937C6.84784 9.74518 6.86586 9.75776 6.88584 9.76637C6.90583 9.77497 6.92735 9.77941 6.94911 9.77941C6.97087 9.77941 6.9924 9.77497 7.01238 9.76637C7.03236 9.75776 7.05038 9.74518 7.06533 9.72937C7.22311 9.55471 7.53067 9.31382 7.87111 9.31382C8.33644 9.31382 8.60267 9.59604 8.60267 9.91204C8.60267 10.1445 8.49467 10.3774 8.38667 10.5436C7.896 11.2911 6.66622 12.9618 6.18444 13.5934V13.7596C6.18444 13.8431 6.25067 13.9174 6.34222 13.9174H9.77867C9.82005 13.9159 9.85936 13.8988 9.88864 13.8696C9.91792 13.8403 9.93501 13.801 9.93644 13.7596V13.012C9.93522 12.9705 9.91822 12.9311 9.8889 12.9017C9.85959 12.8723 9.82016 12.8552 9.77867 12.8538Z" fill="#627077"/>
</g>
<defs>
<clipPath id="clip0_1145_39230">
<rect width="16" height="16" fill="white"/>
</clipPath>
</defs>
</svg>
