<svg width="18" height="18" viewBox="0 0 18 18" fill="none" xmlns="http://www.w3.org/2000/svg">
<path d="M9 12.75C8.25832 12.75 7.5333 12.5301 6.91661 12.118C6.29993 11.706 5.81928 11.1203 5.53545 10.4351C5.25163 9.74984 5.17736 8.99584 5.32206 8.26841C5.46675 7.54098 5.8239 6.8728 6.34835 6.34835C6.8728 5.8239 7.54098 5.46675 8.26841 5.32206C8.99584 5.17736 9.74984 5.25163 10.4351 5.53545C11.1203 5.81928 11.706 6.29993 12.118 6.91661C12.5301 7.5333 12.75 8.25832 12.75 9C12.755 9.49385 12.6614 9.98374 12.4748 10.441C12.2881 10.8982 12.012 11.3136 11.6628 11.6628C11.3136 12.012 10.8982 12.2881 10.441 12.4748C9.98374 12.6614 9.49385 12.755 9 12.75ZM9 6.5C8.66959 6.4923 8.34105 6.55171 8.03426 6.67462C7.72747 6.79753 7.44879 6.9814 7.2151 7.2151C6.9814 7.44879 6.79753 7.72747 6.67462 8.03426C6.55171 8.34105 6.4923 8.66959 6.5 9C6.4923 9.33041 6.55171 9.65895 6.67462 9.96574C6.79753 10.2725 6.9814 10.5512 7.2151 10.7849C7.44879 11.0186 7.72747 11.2025 8.03426 11.3254C8.34105 11.4483 8.66959 11.5077 9 11.5C9.33041 11.5077 9.65895 11.4483 9.96574 11.3254C10.2725 11.2025 10.5512 11.0186 10.7849 10.7849C11.0186 10.5512 11.2025 10.2725 11.3254 9.96574C11.4483 9.65895 11.5077 9.33041 11.5 9C11.5077 8.66959 11.4483 8.34105 11.3254 8.03426C11.2025 7.72747 11.0186 7.44879 10.7849 7.2151C10.5512 6.9814 10.2725 6.79753 9.96574 6.67462C9.65895 6.55171 9.33041 6.4923 9 6.5Z" fill="#454F63"/>
<path d="M15.875 9.47501V9.00001V8.51876L17.075 7.46876C17.2962 7.27379 17.4414 7.0069 17.4849 6.71526C17.5283 6.42362 17.4673 6.126 17.3125 5.87501L15.8375 3.37501C15.7279 3.18517 15.5703 3.0275 15.3806 2.9178C15.1908 2.8081 14.9755 2.75023 14.7563 2.75001C14.6204 2.74897 14.4853 2.77008 14.3563 2.81251L12.8375 3.32501C12.5753 3.15076 12.3018 2.99417 12.0188 2.85626L11.7 1.28126C11.6429 0.993513 11.4863 0.735035 11.2578 0.551074C11.0293 0.367113 10.7434 0.269389 10.45 0.27501H7.52504C7.23172 0.269389 6.94578 0.367113 6.71725 0.551074C6.48873 0.735035 6.33219 0.993513 6.27504 1.28126L5.95629 2.85626C5.67124 2.99413 5.39564 3.15073 5.13129 3.32501L3.64379 2.78751C3.51335 2.75352 3.37827 2.74086 3.24379 2.75001C3.02458 2.75023 2.80929 2.8081 2.61951 2.9178C2.42973 3.0275 2.27214 3.18517 2.16254 3.37501L0.687536 5.87501C0.541653 6.12563 0.487443 6.41917 0.534192 6.70536C0.58094 6.99155 0.725738 7.25259 0.943786 7.44376L2.12504 8.52501V9.48126L0.943786 10.5313C0.719579 10.7238 0.57082 10.9895 0.52391 11.2812C0.476999 11.573 0.534971 11.8719 0.687536 12.125L2.16254 14.625C2.27214 14.8148 2.42973 14.9725 2.61951 15.0822C2.80929 15.1919 3.02458 15.2498 3.24379 15.25C3.37963 15.251 3.51473 15.2299 3.64379 15.1875L5.16254 14.675C5.42475 14.8493 5.69827 15.0058 5.98129 15.1438L6.30004 16.7188C6.35719 17.0065 6.51373 17.265 6.74225 17.4489C6.97078 17.6329 7.25672 17.7306 7.55004 17.725H10.5C10.7934 17.7306 11.0793 17.6329 11.3078 17.4489C11.5363 17.265 11.6929 17.0065 11.75 16.7188L12.0688 15.1438C12.3538 15.0059 12.6294 14.8493 12.8938 14.675L14.4063 15.1875C14.5353 15.2299 14.6704 15.251 14.8063 15.25C15.0255 15.2498 15.2408 15.1919 15.4306 15.0822C15.6203 14.9725 15.7779 14.8148 15.8875 14.625L17.3125 12.125C17.4584 11.8744 17.5126 11.5808 17.4659 11.2947C17.4191 11.0085 17.2743 10.7474 17.0563 10.5563L15.875 9.47501ZM14.7563 14L12.6125 13.275C12.1107 13.7001 11.5372 14.0323 10.9188 14.2563L10.475 16.5H7.52504L7.08129 14.2813C6.4678 14.051 5.89736 13.7193 5.39379 13.3L3.24379 14L1.76879 11.5L3.46879 10C3.35322 9.35305 3.35322 8.69072 3.46879 8.04376L1.76879 6.50001L3.24379 4.00001L5.38754 4.72501C5.88937 4.29994 6.46291 3.96767 7.08129 3.74376L7.52504 1.50001H10.475L10.9188 3.71876C11.5323 3.94902 12.1027 4.28072 12.6063 4.70001L14.7563 4.00001L16.2313 6.50001L14.5313 8.00001C14.6469 8.64697 14.6469 9.3093 14.5313 9.95626L16.2313 11.5L14.7563 14Z" fill="#454F63"/>
</svg>
