<svg width="20" height="20" viewBox="0 0 20 20" fill="none" xmlns="http://www.w3.org/2000/svg">
<path d="M14.3782 11.5461C14.248 11.4919 14.1151 11.4891 13.9795 11.538C13.8438 11.5868 13.7489 11.6763 13.6946 11.8065L13.6214 11.953L13.4179 12.2785L13.0599 12.7505L12.539 13.247L11.8554 13.7108L11.0009 14.0445L9.96741 14.1828C9.95656 14.1828 9.94571 14.1855 9.93486 14.191L9.91858 14.1991C9.61476 14.1991 9.32179 14.1666 9.03967 14.1014C8.75756 14.0363 8.50799 13.9468 8.29098 13.8329C8.07396 13.719 7.87051 13.5969 7.68062 13.4667C7.49074 13.3365 7.32255 13.1927 7.17607 13.0354C7.02958 12.878 6.90209 12.7343 6.79358 12.6041C6.68507 12.4738 6.59284 12.3436 6.51689 12.2134C6.44093 12.0832 6.38668 11.991 6.35413 11.9367C6.32157 11.8825 6.29987 11.8391 6.28902 11.8065C6.22392 11.6763 6.12626 11.5868 5.99605 11.538C5.86584 11.4891 5.73292 11.4946 5.59729 11.5542C5.46166 11.6139 5.36943 11.7089 5.3206 11.8391C5.27177 11.9693 5.27991 12.1049 5.34501 12.246C5.35586 12.2785 5.37485 12.3219 5.40198 12.3762C5.4291 12.4304 5.48607 12.5254 5.57288 12.661C5.65968 12.7966 5.7492 12.9323 5.84143 13.0679C5.93366 13.2036 6.05844 13.3582 6.21578 13.5318C6.37312 13.7054 6.53859 13.8682 6.7122 14.0201C6.88581 14.172 7.08926 14.3239 7.32255 14.4758C7.55584 14.6277 7.79998 14.7579 8.05497 14.8664C8.30996 14.9749 8.59751 15.0644 8.9176 15.135C9.2377 15.2055 9.56593 15.2408 9.9023 15.2408C9.91315 15.2408 9.93486 15.2353 9.96741 15.2245C10.5859 15.2245 11.1718 15.1187 11.7252 14.9071C12.2786 14.6955 12.7181 14.4622 13.0436 14.2072C13.3691 13.9522 13.6648 13.6566 13.9306 13.3202C14.1965 12.9838 14.3701 12.7424 14.4515 12.5959C14.5328 12.4494 14.5952 12.3274 14.6386 12.2297C14.6712 12.1863 14.6902 12.1348 14.6956 12.0751C14.701 12.0154 14.6956 11.9611 14.6793 11.9123C14.663 11.8635 14.6441 11.8147 14.6224 11.7658C14.6007 11.717 14.5681 11.6736 14.5247 11.6356C14.4813 11.5976 14.4325 11.5678 14.3782 11.5461ZM9.99996 1.66655C8.87149 1.66655 7.79184 1.88628 6.76103 2.32573C5.73021 2.76518 4.84317 3.35655 4.09989 4.09982C3.35662 4.84309 2.76526 5.73013 2.32581 6.76095C1.88635 7.79177 1.66663 8.87141 1.66663 9.99988C1.66663 11.1284 1.88635 12.208 2.32581 13.2388C2.76526 14.2696 3.35662 15.1567 4.09989 15.8999C4.84317 16.6432 5.73021 17.2346 6.76103 17.674C7.79184 18.1135 8.87149 18.3332 9.99996 18.3332C11.1284 18.3332 12.2081 18.1135 13.2389 17.674C14.2697 17.2346 15.1568 16.6432 15.9 15.8999C16.6433 15.1567 17.2347 14.2696 17.6741 13.2388C18.1136 12.208 18.3333 11.1284 18.3333 9.99988C18.3333 8.87141 18.1136 7.79177 17.6741 6.76095C17.2347 5.73013 16.6433 4.84309 15.9 4.09982C15.1568 3.35655 14.2697 2.76518 13.2389 2.32573C12.2081 1.88628 11.1284 1.66655 9.99996 1.66655ZM9.99996 17.2916C9.20786 17.2916 8.44017 17.1695 7.6969 16.9253C6.95363 16.6812 6.2836 16.334 5.68681 15.8837C5.09002 15.4334 4.56647 14.9098 4.11617 14.313C3.66587 13.7162 3.31864 13.0462 3.0745 12.3029C2.83036 11.5597 2.70829 10.792 2.70829 9.99988C2.70829 9.01247 2.90089 8.06846 3.28609 7.16785C3.67129 6.26724 4.18941 5.49142 4.84045 4.84038C5.4915 4.18934 6.26732 3.67122 7.16793 3.28602C8.06854 2.90082 9.01255 2.70822 9.99996 2.70822C10.9874 2.70822 11.9314 2.90082 12.832 3.28602C13.7326 3.67122 14.5084 4.18934 15.1595 4.84038C15.8105 5.49142 16.3286 6.26724 16.7138 7.16785C17.099 8.06846 17.2916 9.01247 17.2916 9.99988C17.2916 10.9873 17.099 11.9313 16.7138 12.8319C16.3286 13.7325 15.8105 14.5083 15.1595 15.1594C14.5084 15.8104 13.7326 16.3286 12.832 16.7138C11.9314 17.099 10.9874 17.2916 9.99996 17.2916ZM7.39579 9.47905C7.67791 9.47905 7.91934 9.37597 8.12008 9.16981C8.32081 8.96364 8.42118 8.7195 8.42118 8.43738C8.42118 8.25292 8.37507 8.07931 8.28284 7.91655C8.19061 7.75379 8.06582 7.62629 7.90849 7.53406C7.75115 7.44183 7.58025 7.39572 7.39579 7.39572C7.10282 7.39572 6.85597 7.4988 6.65523 7.70496C6.45449 7.91112 6.35413 8.15527 6.35413 8.43738C6.35413 8.86056 6.53859 9.16981 6.90751 9.36512C7.07027 9.44107 7.23303 9.47905 7.39579 9.47905ZM12.6041 9.47905C12.6801 9.47905 12.756 9.4682 12.832 9.4465C12.9079 9.4248 12.9812 9.39767 13.0517 9.36512C13.1222 9.33257 13.1874 9.29188 13.247 9.24305C13.3067 9.19422 13.361 9.13997 13.4098 9.08029C13.4586 9.02061 13.4993 8.95822 13.5319 8.89311C13.5644 8.82801 13.5888 8.75477 13.6051 8.67339C13.6214 8.59201 13.6295 8.51334 13.6295 8.43738C13.6295 8.15527 13.5291 7.91112 13.3284 7.70496C13.1277 7.4988 12.8835 7.39572 12.596 7.39572C12.3084 7.39572 12.0643 7.4988 11.8636 7.70496C11.6628 7.91112 11.5625 8.15527 11.5625 8.43738C11.5625 8.7195 11.6628 8.96364 11.8636 9.16981C12.0643 9.37597 12.3112 9.47905 12.6041 9.47905Z" fill="white"/>
</svg>
