<svg width="28" height="28" viewBox="0 0 28 28" fill="none" xmlns="http://www.w3.org/2000/svg">
<path d="M14 28C21.732 28 28 21.732 28 14C28 6.26801 21.732 0 14 0C6.26801 0 0 6.26801 0 14C0 21.732 6.26801 28 14 28Z" fill="#37CB97"/>
<path d="M18.3782 15.5461C18.248 15.4919 18.1151 15.4891 17.9795 15.538C17.8438 15.5868 17.7489 15.6763 17.6946 15.8065L17.6214 15.953L17.4179 16.2785L17.0599 16.7505L16.539 17.247L15.8554 17.7108L15.0009 18.0445L13.9674 18.1828C13.9566 18.1828 13.9457 18.1855 13.9349 18.191L13.9186 18.1991C13.6148 18.1991 13.3218 18.1666 13.0397 18.1014C12.7576 18.0363 12.508 17.9468 12.291 17.8329C12.074 17.719 11.8705 17.5969 11.6806 17.4667C11.4907 17.3365 11.3225 17.1927 11.1761 17.0354C11.0296 16.878 10.9021 16.7343 10.7936 16.6041C10.6851 16.4738 10.5928 16.3436 10.5169 16.2134C10.4409 16.0832 10.3867 15.991 10.3541 15.9367C10.3216 15.8825 10.2999 15.8391 10.289 15.8065C10.2239 15.6763 10.1263 15.5868 9.99605 15.538C9.86584 15.4891 9.73292 15.4946 9.59729 15.5542C9.46166 15.6139 9.36943 15.7089 9.3206 15.8391C9.27177 15.9693 9.27991 16.1049 9.34501 16.246C9.35586 16.2785 9.37485 16.3219 9.40198 16.3762C9.4291 16.4304 9.48607 16.5254 9.57288 16.661C9.65968 16.7966 9.7492 16.9323 9.84143 17.0679C9.93366 17.2036 10.0584 17.3582 10.2158 17.5318C10.3731 17.7054 10.5386 17.8682 10.7122 18.0201C10.8858 18.172 11.0893 18.3239 11.3225 18.4758C11.5558 18.6277 11.8 18.7579 12.055 18.8664C12.31 18.9749 12.5975 19.0644 12.9176 19.135C13.2377 19.2055 13.5659 19.2408 13.9023 19.2408C13.9131 19.2408 13.9349 19.2353 13.9674 19.2245C14.5859 19.2245 15.1718 19.1187 15.7252 18.9071C16.2786 18.6955 16.7181 18.4622 17.0436 18.2072C17.3691 17.9522 17.6648 17.6566 17.9306 17.3202C18.1965 16.9838 18.3701 16.7424 18.4515 16.5959C18.5328 16.4494 18.5952 16.3274 18.6386 16.2297C18.6712 16.1863 18.6902 16.1348 18.6956 16.0751C18.701 16.0154 18.6956 15.9611 18.6793 15.9123C18.663 15.8635 18.6441 15.8147 18.6224 15.7658C18.6007 15.717 18.5681 15.6736 18.5247 15.6356C18.4813 15.5976 18.4325 15.5678 18.3782 15.5461ZM14 5.66655C12.8715 5.66655 11.7918 5.88628 10.761 6.32573C9.73021 6.76518 8.84317 7.35655 8.09989 8.09982C7.35662 8.84309 6.76526 9.73013 6.32581 10.7609C5.88635 11.7918 5.66663 12.8714 5.66663 13.9999C5.66663 15.1284 5.88635 16.208 6.32581 17.2388C6.76526 18.2696 7.35662 19.1567 8.09989 19.8999C8.84317 20.6432 9.73021 21.2346 10.761 21.674C11.7918 22.1135 12.8715 22.3332 14 22.3332C15.1284 22.3332 16.2081 22.1135 17.2389 21.674C18.2697 21.2346 19.1568 20.6432 19.9 19.8999C20.6433 19.1567 21.2347 18.2696 21.6741 17.2388C22.1136 16.208 22.3333 15.1284 22.3333 13.9999C22.3333 12.8714 22.1136 11.7918 21.6741 10.7609C21.2347 9.73013 20.6433 8.84309 19.9 8.09982C19.1568 7.35655 18.2697 6.76518 17.2389 6.32573C16.2081 5.88628 15.1284 5.66655 14 5.66655ZM14 21.2916C13.2079 21.2916 12.4402 21.1695 11.6969 20.9253C10.9536 20.6812 10.2836 20.334 9.68681 19.8837C9.09002 19.4334 8.56647 18.9098 8.11617 18.313C7.66587 17.7162 7.31864 17.0462 7.0745 16.3029C6.83036 15.5597 6.70829 14.792 6.70829 13.9999C6.70829 13.0125 6.90089 12.0685 7.28609 11.1678C7.67129 10.2672 8.18941 9.49142 8.84045 8.84038C9.4915 8.18934 10.2673 7.67122 11.1679 7.28602C12.0685 6.90082 13.0125 6.70822 14 6.70822C14.9874 6.70822 15.9314 6.90082 16.832 7.28602C17.7326 7.67122 18.5084 8.18934 19.1595 8.84038C19.8105 9.49142 20.3286 10.2672 20.7138 11.1678C21.099 12.0685 21.2916 13.0125 21.2916 13.9999C21.2916 14.9873 21.099 15.9313 20.7138 16.8319C20.3286 17.7325 19.8105 18.5083 19.1595 19.1594C18.5084 19.8104 17.7326 20.3286 16.832 20.7138C15.9314 21.099 14.9874 21.2916 14 21.2916ZM11.3958 13.479C11.6779 13.479 11.9193 13.376 12.1201 13.1698C12.3208 12.9636 12.4212 12.7195 12.4212 12.4374C12.4212 12.2529 12.3751 12.0793 12.2828 11.9165C12.1906 11.7538 12.0658 11.6263 11.9085 11.5341C11.7511 11.4418 11.5802 11.3957 11.3958 11.3957C11.1028 11.3957 10.856 11.4988 10.6552 11.705C10.4545 11.9111 10.3541 12.1553 10.3541 12.4374C10.3541 12.8606 10.5386 13.1698 10.9075 13.3651C11.0703 13.4411 11.233 13.479 11.3958 13.479ZM16.6041 13.479C16.6801 13.479 16.756 13.4682 16.832 13.4465C16.9079 13.4248 16.9812 13.3977 17.0517 13.3651C17.1222 13.3326 17.1874 13.2919 17.247 13.243C17.3067 13.1942 17.361 13.14 17.4098 13.0803C17.4586 13.0206 17.4993 12.9582 17.5319 12.8931C17.5644 12.828 17.5888 12.7548 17.6051 12.6734C17.6214 12.592 17.6295 12.5133 17.6295 12.4374C17.6295 12.1553 17.5291 11.9111 17.3284 11.705C17.1277 11.4988 16.8835 11.3957 16.596 11.3957C16.3084 11.3957 16.0643 11.4988 15.8636 11.705C15.6628 11.9111 15.5625 12.1553 15.5625 12.4374C15.5625 12.7195 15.6628 12.9636 15.8636 13.1698C16.0643 13.376 16.3112 13.479 16.6041 13.479Z" fill="white"/>
</svg>
