<svg width="16" height="16" viewBox="0 0 16 16" fill="none" xmlns="http://www.w3.org/2000/svg">
<g clip-path="url(#clip0_1145_39254)">
<path d="M8 3.55556L4.88889 0H0L6.22222 7.55556L11.3427 5.44444L8 3.55556Z" fill="#4584EB"/>
<path d="M11.1111 0L8 3.55556L10.3956 6.80533L10.9409 6.14356L16 0H11.1111Z" fill="#4584EB"/>
<path d="M10.3133 7.12267C10.3489 7.02623 10.3716 6.92356 10.3716 6.81467C10.3716 6.57892 10.2779 6.35283 10.1112 6.18613C9.94451 6.01943 9.71842 5.92578 9.48267 5.92578H6.51956C6.28381 5.92578 6.05772 6.01943 5.89102 6.18613C5.72432 6.35283 5.63067 6.57892 5.63067 6.81467C5.63067 6.92356 5.65289 7.02623 5.68889 7.12267C4.24089 7.93423 3.26044 9.48134 3.26044 11.2591C3.26 13.8773 5.38267 16 8.00089 16C10.6191 16 12.7418 13.8773 12.7418 11.2591C12.7418 9.48134 11.7613 7.93423 10.3133 7.12267Z" fill="#FF8A3B"/>
<path d="M6.276 13.0447L6.79956 12.5211C6.82567 12.4927 6.86155 12.4752 6.90003 12.472C6.9385 12.4689 6.97674 12.4804 7.00711 12.5042C7.00711 12.5042 7.52222 12.8869 7.92089 12.8869C8.27867 12.8869 8.64444 12.5878 8.64444 12.222C8.64444 11.8562 8.27022 11.5491 7.65556 11.5491H7.37156C7.33021 11.5477 7.29096 11.5306 7.26175 11.5013C7.23254 11.472 7.21555 11.4327 7.21422 11.3913V10.7016C7.21422 10.61 7.28889 10.5438 7.37156 10.5438H7.65556C8.23733 10.5438 8.54444 10.2616 8.54444 9.90423C8.54444 9.54645 8.23733 9.28111 7.87956 9.28111C7.51378 9.28111 7.28133 9.47223 7.15689 9.61311C7.09822 9.67978 6.99911 9.67978 6.93289 9.622L6.42578 9.12334C6.35867 9.06467 6.36711 8.96556 6.42578 8.90734C6.42578 8.90734 7.10711 8.17578 8.01244 8.17578C8.97644 8.17578 9.80755 8.766 9.80755 9.69667C9.80755 10.3362 9.32533 10.81 8.95156 10.9842V11.0096C9.34222 11.1758 9.95689 11.6909 9.95689 12.4056C9.95689 13.3113 9.16756 13.9931 8.02044 13.9931C6.97422 13.9931 6.44178 13.4776 6.26756 13.2536C6.21733 13.194 6.22622 13.1024 6.276 13.0447Z" fill="#7C4119"/>
</g>
<defs>
<clipPath id="clip0_1145_39254">
<rect width="16" height="16" fill="white"/>
</clipPath>
</defs>
</svg>
