<svg width="28" height="28" viewBox="0 0 28 28" fill="none" xmlns="http://www.w3.org/2000/svg">
<g clip-path="url(#clip0_9_2)">
<path d="M14 28C21.732 28 28 21.732 28 14C28 6.26801 21.732 0 14 0C6.26801 0 0 6.26801 0 14C0 21.732 6.26801 28 14 28Z" fill="#FFB322"/>
<path d="M14.3333 6C12.8251 6 11.4308 6.37164 10.1504 7.11491C8.87 7.85818 7.85818 8.87001 7.1149 10.1504C6.37163 11.4308 6 12.8251 6 14.3333C6 15.8416 6.37163 17.2359 7.1149 18.5163C7.85818 19.7967 8.87 20.8085 10.1504 21.5518C11.4308 22.2951 12.8251 22.6667 14.3333 22.6667C15.8416 22.6667 17.2359 22.2951 18.5163 21.5518C19.7967 20.8085 20.8085 19.7967 21.5518 18.5163C22.2951 17.2359 22.6667 15.8416 22.6667 14.3333C22.6667 12.8251 22.2951 11.4308 21.5518 10.1504C20.8085 8.87001 19.7967 7.85818 18.5163 7.11491C17.2359 6.37164 15.8416 6 14.3333 6ZM14.3333 21.6413C13.5412 21.6413 12.7735 21.5193 12.0303 21.2751C11.287 21.031 10.617 20.681 10.0202 20.2253C9.42339 19.7696 8.89984 19.2433 8.44954 18.6465C7.99924 18.0497 7.65201 17.3797 7.40787 16.6364C7.16373 15.8932 7.04166 15.1254 7.04166 14.3333C7.04166 13.3459 7.23426 12.4019 7.61946 11.5013C8.00466 10.6007 8.52278 9.82487 9.17382 9.17383C9.82487 8.52279 10.6007 8.00467 11.5013 7.61947C12.4019 7.23427 13.3459 7.04167 14.3333 7.04167C15.3207 7.04167 16.2648 7.23427 17.1654 7.61947C18.066 8.00467 18.8418 8.52279 19.4929 9.17383C20.1439 9.82487 20.662 10.6007 21.0472 11.5013C21.4324 12.4019 21.625 13.3459 21.625 14.3333C21.625 15.3208 21.4324 16.2647 21.0472 17.1653C20.662 18.0659 20.1439 18.8445 19.4929 19.5009C18.8418 20.1574 18.066 20.6782 17.1654 21.0634C16.2648 21.4486 15.3207 21.6413 14.3333 21.6413ZM14.8542 14.1217V9.125C14.8542 8.98394 14.8026 8.86187 14.6995 8.75879C14.5965 8.65571 14.4744 8.60417 14.3333 8.60417C14.1923 8.60417 14.0702 8.65571 13.9671 8.75879C13.864 8.86187 13.8125 8.98394 13.8125 9.125V14.3333C13.8125 14.4852 13.8668 14.61 13.9753 14.7077L13.9834 14.724L13.9915 14.7402L16.5795 17.3119C16.6771 17.4204 16.7992 17.4747 16.9457 17.4747C17.0921 17.4747 17.2142 17.4231 17.3119 17.32C17.4095 17.217 17.4584 17.0922 17.4584 16.9457C17.4584 16.7992 17.4095 16.6771 17.3119 16.5795L14.8542 14.1217Z" fill="white"/>
</g>
<defs>
<clipPath id="clip0_9_2">
<rect width="28" height="28" fill="white"/>
</clipPath>
</defs>
</svg>
