<svg width="19" height="18" viewBox="0 0 19 18" fill="none" xmlns="http://www.w3.org/2000/svg">
<path d="M8.70831 11.3512L6.68894 9.3318L5.89581 10.1249L8.70831 12.9374L13.7708 7.87492L12.9777 7.07617L8.70831 11.3512Z" fill="#8991A2"/>
<path d="M14.8958 2.8125H13.2083V2.25C13.2083 1.95163 13.0898 1.66548 12.8788 1.4545C12.6678 1.24353 12.3817 1.125 12.0833 1.125H7.58331C7.28494 1.125 6.9988 1.24353 6.78782 1.4545C6.57684 1.66548 6.45831 1.95163 6.45831 2.25V2.8125H4.77081C4.47244 2.8125 4.1863 2.93103 3.97532 3.142C3.76434 3.35298 3.64581 3.63913 3.64581 3.9375V15.75C3.64581 16.0484 3.76434 16.3345 3.97532 16.5455C4.1863 16.7565 4.47244 16.875 4.77081 16.875H14.8958C15.1942 16.875 15.4803 16.7565 15.6913 16.5455C15.9023 16.3345 16.0208 16.0484 16.0208 15.75V3.9375C16.0208 3.63913 15.9023 3.35298 15.6913 3.142C15.4803 2.93103 15.1942 2.8125 14.8958 2.8125V2.8125ZM7.58331 2.25H12.0833V4.5H7.58331V2.25ZM14.8958 15.75H4.77081V3.9375H6.45831V5.625H13.2083V3.9375H14.8958V15.75Z" fill="#8991A2"/>
</svg>
