<svg width="28" height="28" viewBox="0 0 28 28" fill="none" xmlns="http://www.w3.org/2000/svg">
<g clip-path="url(#clip0_10_16)">
<path d="M14 28C21.732 28 28 21.732 28 14C28 6.26801 21.732 0 14 0C6.26801 0 0 6.26801 0 14C0 21.732 6.26801 28 14 28Z" fill="#4584EB"/>
<path d="M15.4216 15.1667L20.84 9.55781L19.7647 8.44464C18.2525 6.87935 16.2016 5.99999 14.0631 6C11.9246 6.00002 9.87373 6.87941 8.3616 8.44472C6.84948 10.01 5.99999 12.133 6 14.3467C6.00001 16.5604 6.84953 18.6834 8.36168 20.2487L9.43689 21.3619L14.5457 16.0734L20.1306 21.8545L20.6563 22.3988C20.8217 22.57 21.0496 22.6667 21.2877 22.6667H21.3168C21.8224 22.6667 22.0801 22.0594 21.7288 21.6958L15.4216 15.1667ZM14.0632 7.28219C14.9598 7.27966 15.8479 7.46123 16.6763 7.8164C17.5046 8.17156 18.2567 8.69327 18.8889 9.35132L19.0885 9.55797L16.8802 11.8439C16.131 11.0522 15.3167 10.3294 14.4466 9.68353C13.4706 8.96887 12.5331 8.46843 11.6602 8.19592C11.4429 8.12769 11.2221 8.07246 10.9987 8.0305C11.9495 7.53615 12.9992 7.27983 14.0632 7.28219ZM9.43689 19.5488L9.23726 19.3422C8.22371 18.2914 7.55512 16.9373 7.32615 15.4714C7.09719 14.0056 7.31944 12.5023 7.96145 11.1745C8.00201 11.4057 8.05536 11.6344 8.12126 11.8593C8.38444 12.763 8.86822 13.7334 9.55834 14.7436C10.1822 15.6443 10.8805 16.4872 11.6454 17.2628L9.43689 19.5488ZM12.5215 16.3557C12.0626 15.8896 11.2741 15.0345 10.5694 14.0032C9.6842 12.7077 8.76624 10.8822 9.26307 9.37784C10.7114 8.86531 12.4677 9.80797 13.7141 10.7175C14.7151 11.4479 15.5499 12.2725 16.0037 12.751L12.5215 16.3557Z" fill="white"/>
</g>
<defs>
<clipPath id="clip0_10_16">
<rect width="28" height="28" fill="white"/>
</clipPath>
</defs>
</svg>
