<svg width="28" height="28" viewBox="0 0 28 28" fill="none" xmlns="http://www.w3.org/2000/svg">
<g clip-path="url(#clip0_9_8)">
<path d="M14 28C21.732 28 28 21.732 28 14C28 6.26801 21.732 0 14 0C6.26801 0 0 6.26801 0 14C0 21.732 6.26801 28 14 28Z" fill="#FF8A3B"/>
<path d="M14.3333 6C12.8251 6 11.4308 6.37164 10.1504 7.1149C8.87 7.85818 7.85818 8.87 7.1149 10.1504C6.37163 11.4308 6 12.8251 6 14.3333C6 15.8416 6.37163 17.2359 7.1149 18.5163C7.85818 19.7967 8.87 20.8085 10.1504 21.5518C11.4308 22.295 12.8251 22.6667 14.3333 22.6667C15.8416 22.6667 17.2359 22.295 18.5163 21.5518C19.7967 20.8085 20.8085 19.7967 21.5518 18.5163C22.2951 17.2359 22.6667 15.8416 22.6667 14.3333C22.6667 12.8251 22.2951 11.4308 21.5518 10.1504C20.8085 8.87 19.7967 7.85818 18.5163 7.1149C17.2359 6.37164 15.8416 6 14.3333 6ZM14.3333 21.6413C13.5412 21.6413 12.7735 21.5192 12.0303 21.2751C11.287 21.0309 10.617 20.681 10.0202 20.2253C9.42339 19.7695 8.89984 19.2433 8.44954 18.6465C7.99924 18.0497 7.65201 17.3797 7.40787 16.6364C7.16373 15.8931 7.04166 15.1254 7.04166 14.3333C7.04166 13.3459 7.23426 12.4019 7.61946 11.5013C8.00466 10.6007 8.52278 9.82487 9.17382 9.17383C9.82487 8.52279 10.6007 8.00467 11.5013 7.61947C12.4019 7.23427 13.3459 7.04167 14.3333 7.04167C15.3207 7.04167 16.2648 7.23427 17.1654 7.61947C18.066 8.00467 18.8418 8.52279 19.4929 9.17383C20.1439 9.82487 20.662 10.6007 21.0472 11.5013C21.4324 12.4019 21.625 13.3459 21.625 14.3333C21.625 15.3207 21.4324 16.2648 21.0472 17.1654C20.662 18.066 20.1439 18.8445 19.4929 19.501C18.8418 20.1574 18.066 20.6783 17.1654 21.0635C16.2648 21.4487 15.3207 21.6413 14.3333 21.6413ZM17.2793 11.3874C17.1817 11.2897 17.0596 11.2409 16.9131 11.2409C16.7666 11.2409 16.6446 11.2897 16.5469 11.3874L14.3333 13.6009L12.1198 11.3874C12.0221 11.2897 11.9001 11.2409 11.7536 11.2409C11.6071 11.2409 11.485 11.2897 11.3874 11.3874C11.2897 11.485 11.2409 11.6071 11.2409 11.7536C11.2409 11.9001 11.2897 12.0221 11.3874 12.1198L13.6009 14.3333L11.3874 16.5469C11.3223 16.612 11.2762 16.6879 11.249 16.7747C11.2219 16.8615 11.2219 16.9511 11.249 17.0433C11.2762 17.1355 11.3223 17.2142 11.3874 17.2793C11.485 17.3769 11.6071 17.4258 11.7536 17.4258C11.9001 17.4258 12.0221 17.3769 12.1198 17.2793L14.3333 15.0658L16.5469 17.2793C16.6446 17.3769 16.7666 17.4258 16.9131 17.4258C17.0596 17.4258 17.1817 17.3769 17.2793 17.2793C17.3444 17.2142 17.3905 17.1355 17.4177 17.0433C17.4448 16.9511 17.4448 16.8615 17.4177 16.7747C17.3905 16.6879 17.3444 16.612 17.2793 16.5469L15.0658 14.3333L17.2793 12.1198C17.377 12.0221 17.4258 11.9001 17.4258 11.7536C17.4258 11.6071 17.377 11.485 17.2793 11.3874Z" fill="white"/>
</g>
<defs>
<clipPath id="clip0_9_8">
<rect width="28" height="28" fill="white"/>
</clipPath>
</defs>
</svg>
